<svg width="120" height="21" viewBox="0 0 120 21" fill="none" xmlns="http://www.w3.org/2000/svg">
    <path fill-rule="evenodd" clip-rule="evenodd" d="M26.6158 14.089C26.6724 14.0832 26.7281 14.0597 26.7739 14.0167L27.4145 13.4162L30.2017 17.0231C30.2532 17.0898 30.3328 17.1289 30.4171 17.1289H33.1843C33.4123 17.1289 33.5393 16.8654 33.3972 16.6871L29.3467 11.6047L33.3389 7.86205C33.5189 7.69328 33.3995 7.39128 33.1527 7.39128H30.0866C30.0131 7.39128 29.9427 7.42101 29.8915 7.4737L26.6158 10.8419V3.83078C26.6158 3.68046 26.4939 3.55859 26.3436 3.55859H23.9538C23.8035 3.55859 23.6816 3.68046 23.6816 3.83078V16.8567C23.6816 17.007 23.8035 17.1289 23.9538 17.1289H26.3436C26.4939 17.1289 26.6158 17.007 26.6158 16.8567V14.089ZM51.422 17.1472C51.8255 17.2695 52.2472 17.3306 52.6874 17.3306C53.5065 17.3306 54.24 17.1167 54.8879 16.6888C55.5359 16.2486 56.0433 15.6496 56.41 14.8916C56.789 14.1214 56.9785 13.2412 56.9785 12.2509C56.9785 11.2729 56.789 10.4049 56.41 9.64689C56.031 8.87668 55.5114 8.27763 54.8513 7.84974C54.2033 7.40962 53.4576 7.18956 52.614 7.18956C52.2106 7.18956 51.8193 7.25069 51.4404 7.37295C51.0614 7.4952 50.7129 7.66636 50.3951 7.88642C50.1644 8.03726 49.9627 8.20742 49.7899 8.3969V3.83078C49.7899 3.68046 49.6681 3.55859 49.5177 3.55859H47.1097C46.9593 3.55859 46.8375 3.68046 46.8375 3.83078V16.8384C46.8375 16.9887 46.9593 17.1105 47.1097 17.1105H49.3169C49.4595 17.1105 49.5779 17.0005 49.5883 16.8582L49.6448 16.0861C49.8383 16.2949 50.0639 16.4835 50.3217 16.6521C50.6518 16.8599 51.0186 17.025 51.422 17.1472ZM53.0725 14.5249C52.7424 14.7449 52.3573 14.8549 51.9172 14.8549C51.4648 14.8549 51.0736 14.7449 50.7435 14.5249C50.4134 14.3048 50.1567 14.0053 49.9733 13.6263C49.7899 13.2351 49.6982 12.7766 49.6982 12.2509C49.6982 11.7374 49.7899 11.2851 49.9733 10.8939C50.1567 10.5027 50.4134 10.2031 50.7435 9.99531C51.0736 9.78748 51.4648 9.68356 51.9172 9.68356C52.3573 9.68356 52.7424 9.78748 53.0725 9.99531C53.4025 10.2031 53.6532 10.5027 53.8243 10.8939C54.0077 11.2851 54.0994 11.7374 54.0994 12.2509C54.0994 12.7766 54.0077 13.2351 53.8243 13.6263C53.6532 14.0053 53.4025 14.3048 53.0725 14.5249ZM63.5471 17.3123C62.4713 17.3123 61.536 17.0983 60.7414 16.6704C59.9467 16.2303 59.3293 15.6374 58.8892 14.8916C58.4491 14.1336 58.229 13.2717 58.229 12.3059C58.229 11.5602 58.3513 10.8756 58.5958 10.2521C58.8403 9.62855 59.1826 9.09063 59.6227 8.63829C60.0629 8.17372 60.5824 7.81918 61.1815 7.57467C61.7928 7.31793 62.4591 7.18957 63.1804 7.18957C63.865 7.18957 64.4885 7.31182 65.0509 7.55633C65.6255 7.80084 66.1206 8.14315 66.5363 8.58327C66.9519 9.02339 67.2698 9.54297 67.4898 10.142C67.7099 10.7411 67.8077 11.3951 67.7833 12.1042L67.7711 12.6269C67.7677 12.7747 67.6469 12.8928 67.499 12.8928H61.0746C61.1293 13.109 61.2077 13.3107 61.3099 13.4979C61.5421 13.8891 61.8722 14.1948 62.3001 14.4148C62.7402 14.6349 63.2598 14.7449 63.8589 14.7449C64.2745 14.7449 64.6413 14.6838 64.9592 14.5615C65.222 14.4642 65.5003 14.3126 65.7941 14.1068C65.921 14.0179 66.0974 14.0435 66.1869 14.17L67.256 15.681C67.3367 15.7951 67.3184 15.9523 67.2093 16.0397C66.8859 16.2987 66.5454 16.5151 66.1878 16.6888C65.7599 16.8966 65.3198 17.0494 64.8675 17.1472C64.4274 17.2573 63.9872 17.3123 63.5471 17.3123ZM61.2365 10.7655C61.1667 10.9102 61.1111 11.0691 61.0697 11.2423H65.0692V11.224C65.0448 10.9183 64.9469 10.6494 64.7758 10.4171C64.6169 10.1726 64.4029 9.98309 64.134 9.84861C63.865 9.71413 63.5594 9.64689 63.217 9.64689C62.7402 9.64689 62.3307 9.74469 61.9884 9.9403C61.6583 10.1237 61.4077 10.3988 61.2365 10.7655ZM70.4045 16.8538C71.138 17.1595 71.9816 17.3123 72.9352 17.3123C73.7176 17.3123 74.4145 17.1778 75.0257 16.9088C75.637 16.6276 76.1138 16.2487 76.4561 15.7719C76.8107 15.2828 76.9879 14.7266 76.9879 14.1031C76.9879 13.7852 76.939 13.4918 76.8412 13.2228C76.7434 12.9417 76.5967 12.6971 76.4011 12.4893C76.1566 12.2204 75.8265 11.9881 75.4108 11.7925C74.9952 11.5969 74.5 11.4196 73.9254 11.2607C73.4609 11.1262 73.0941 11.0161 72.8252 10.9306C72.5562 10.8328 72.3606 10.7472 72.2383 10.6738C72.1161 10.6005 72.0183 10.5088 71.9449 10.3988C71.8838 10.2887 71.8532 10.1726 71.8532 10.0503C71.8532 9.92808 71.8777 9.82416 71.9266 9.73858C71.9755 9.64078 72.0488 9.56131 72.1466 9.50018C72.2444 9.42683 72.3606 9.37793 72.4951 9.35348C72.6418 9.3168 72.8068 9.29846 72.9902 9.29846C73.2347 9.29846 73.5037 9.34737 73.7971 9.44517C74.0905 9.54297 74.3717 9.67745 74.6406 9.84861C74.8357 9.95889 75.0161 10.0809 75.1818 10.2148C75.301 10.3111 75.4768 10.3044 75.5789 10.1901L76.7547 8.87437C76.8536 8.76367 76.8461 8.59349 76.7317 8.49892C76.4513 8.2672 76.1394 8.06303 75.7959 7.88642C75.3803 7.66636 74.9279 7.4952 74.4389 7.37295C73.9499 7.25069 73.4364 7.18957 72.8985 7.18957C72.3973 7.18957 71.9082 7.26292 71.4314 7.40963C70.9669 7.54411 70.5512 7.74583 70.1844 8.01479C69.8299 8.28375 69.5426 8.60161 69.3226 8.96838C69.1147 9.33514 69.0108 9.74469 69.0108 10.197C69.0108 10.5883 69.078 10.9428 69.2125 11.2607C69.347 11.5663 69.5365 11.8475 69.781 12.1042C70.05 12.3732 70.3923 12.6116 70.8079 12.8194C71.2358 13.015 71.7371 13.1862 72.3117 13.3329C72.7151 13.4429 73.0452 13.5407 73.302 13.6263C73.5587 13.7119 73.7421 13.7852 73.8521 13.8463C74.0722 13.9808 74.1822 14.1703 74.1822 14.4148C74.1822 14.5371 74.1577 14.6471 74.1088 14.7449C74.0599 14.8305 73.9866 14.91 73.8888 14.9833C73.8032 15.0444 73.6932 15.0933 73.5587 15.13C73.4242 15.1667 73.2714 15.185 73.1002 15.185C72.6723 15.185 72.22 15.0995 71.7432 14.9283C71.3423 14.7741 70.9759 14.5507 70.6441 14.2582C70.537 14.1638 70.3759 14.1571 70.268 14.2506L68.8826 15.4503C68.7705 15.5474 68.7561 15.7171 68.8588 15.8241C69.2637 16.2455 69.7789 16.5887 70.4045 16.8538ZM83.3718 17.3123C82.296 17.3123 81.3607 17.0983 80.5661 16.6704C79.7714 16.2303 79.154 15.6374 78.7139 14.8916C78.2738 14.1336 78.0537 13.2717 78.0537 12.3059C78.0537 11.5602 78.176 10.8756 78.4205 10.2521C78.665 9.62855 79.0073 9.09063 79.4474 8.63829C79.8876 8.17372 80.4071 7.81918 81.0062 7.57467C81.6175 7.31793 82.2837 7.18957 83.005 7.18957C83.6897 7.18957 84.3132 7.31182 84.8755 7.55633C85.4501 7.80084 85.9453 8.14315 86.3609 8.58327C86.7766 9.02339 87.0945 9.54297 87.3145 10.142C87.5346 10.7411 87.6324 11.3951 87.6079 12.1042L87.5958 12.6269C87.5924 12.7747 87.4715 12.8928 87.3237 12.8928H80.8993C80.954 13.109 81.0324 13.3107 81.1345 13.4979C81.3668 13.8891 81.6969 14.1948 82.1248 14.4148C82.5649 14.6349 83.0845 14.7449 83.6836 14.7449C84.0992 14.7449 84.466 14.6838 84.7839 14.5615C85.0467 14.4642 85.325 14.3126 85.6188 14.1068C85.7457 14.0179 85.9221 14.0435 86.0116 14.17L87.0807 15.681C87.1614 15.7951 87.1431 15.9523 87.034 16.0397C86.7106 16.2987 86.3701 16.5151 86.0125 16.6888C85.5846 16.8966 85.1445 17.0494 84.6922 17.1472C84.252 17.2573 83.8119 17.3123 83.3718 17.3123ZM81.0612 10.7655C80.9913 10.9102 80.9358 11.0691 80.8944 11.2423H84.8939V11.224C84.8694 10.9183 84.7716 10.6494 84.6005 10.4171C84.4415 10.1726 84.2276 9.98309 83.9586 9.84861C83.6897 9.71413 83.384 9.64689 83.0417 9.64689C82.5649 9.64689 82.1554 9.74469 81.8131 9.9403C81.483 10.1237 81.2323 10.3988 81.0612 10.7655ZM89.4772 16.8567C89.4772 17.007 89.5991 17.1289 89.7494 17.1289H90.0824H90.9626H92.1391C92.2895 17.1289 92.4113 17.007 92.4113 16.8567V11.2973C92.4113 11.065 92.4541 10.8511 92.5397 10.6555C92.6375 10.4599 92.7659 10.2887 92.9248 10.142C93.0837 9.98309 93.2732 9.86695 93.4933 9.7936C93.7133 9.70802 93.9517 9.66523 94.2085 9.66523C94.5386 9.653 94.8136 9.71413 95.0337 9.84861C95.266 9.97087 95.4371 10.1604 95.5472 10.4171C95.6572 10.6738 95.7122 10.9978 95.7122 11.389V16.8567C95.7122 17.007 95.8341 17.1289 95.9844 17.1289H98.3925C98.5428 17.1289 98.6647 17.007 98.6647 16.8567V11.1506C98.6647 10.2948 98.5363 9.57354 98.2795 8.98671C98.0228 8.38766 97.6438 7.94143 97.1426 7.64802C96.6413 7.34239 96.0239 7.18957 95.2904 7.18957C94.7525 7.18957 94.239 7.2996 93.75 7.51965C93.261 7.73971 92.8392 8.03313 92.4847 8.39989C92.4267 8.45989 92.3718 8.52111 92.3198 8.58356L92.2766 7.65089C92.2699 7.50561 92.1502 7.39129 92.0047 7.39129H89.7494C89.5991 7.39129 89.4772 7.51315 89.4772 7.66348V16.8567ZM104.4 17.3123C103.447 17.3123 102.603 17.1595 101.87 16.8538C101.244 16.5887 100.729 16.2455 100.324 15.8241C100.221 15.7171 100.236 15.5474 100.348 15.4503L101.733 14.2506C101.841 14.1571 102.002 14.1638 102.109 14.2582C102.441 14.5507 102.807 14.7741 103.208 14.9283C103.685 15.0995 104.137 15.185 104.565 15.185C104.736 15.185 104.889 15.1667 105.024 15.13C105.158 15.0933 105.268 15.0444 105.354 14.9833C105.452 14.91 105.525 14.8305 105.574 14.7449C105.623 14.6471 105.647 14.5371 105.647 14.4148C105.647 14.1703 105.537 13.9808 105.317 13.8463C105.207 13.7852 105.024 13.7119 104.767 13.6263C104.51 13.5407 104.18 13.4429 103.777 13.3329C103.202 13.1862 102.701 13.015 102.273 12.8194C101.857 12.6116 101.515 12.3732 101.246 12.1042C101.002 11.8475 100.812 11.5663 100.678 11.2607C100.543 10.9428 100.476 10.5883 100.476 10.197C100.476 9.74469 100.58 9.33514 100.788 8.96838C101.008 8.60161 101.295 8.28375 101.65 8.01479C102.016 7.74583 102.432 7.54411 102.897 7.40963C103.373 7.26292 103.862 7.18957 104.364 7.18957C104.901 7.18957 105.415 7.25069 105.904 7.37295C106.393 7.4952 106.845 7.66636 107.261 7.88642C107.604 8.06303 107.916 8.2672 108.197 8.49892C108.311 8.59349 108.319 8.76367 108.22 8.87437L107.044 10.1901C106.942 10.3044 106.766 10.3111 106.647 10.2148C106.481 10.0809 106.301 9.95889 106.106 9.84861C105.837 9.67745 105.556 9.54297 105.262 9.44517C104.969 9.34737 104.7 9.29846 104.455 9.29846C104.272 9.29846 104.107 9.3168 103.96 9.35348C103.826 9.37793 103.71 9.42683 103.612 9.50018C103.514 9.56131 103.441 9.64078 103.392 9.73858C103.343 9.82416 103.318 9.92808 103.318 10.0503C103.318 10.1726 103.349 10.2887 103.41 10.3988C103.483 10.5088 103.581 10.6005 103.703 10.6738C103.826 10.7472 104.021 10.8328 104.29 10.9306C104.559 11.0161 104.926 11.1262 105.391 11.2607C105.965 11.4196 106.46 11.5969 106.876 11.7925C107.292 11.9881 107.622 12.2204 107.866 12.4893C108.062 12.6971 108.208 12.9417 108.306 13.2228C108.404 13.4918 108.453 13.7852 108.453 14.1031C108.453 14.7266 108.276 15.2828 107.921 15.7719C107.579 16.2487 107.102 16.6276 106.491 16.9088C105.88 17.1778 105.183 17.3123 104.4 17.3123ZM114.837 17.3123C113.761 17.3123 112.826 17.0983 112.031 16.6704C111.236 16.2303 110.619 15.6374 110.179 14.8916C109.739 14.1336 109.519 13.2717 109.519 12.3059C109.519 11.5602 109.641 10.8756 109.886 10.2521C110.13 9.62855 110.472 9.09063 110.912 8.63829C111.353 8.17372 111.872 7.81918 112.471 7.57467C113.083 7.31793 113.749 7.18957 114.47 7.18957C115.155 7.18957 115.778 7.31182 116.341 7.55633C116.915 7.80084 117.41 8.14315 117.826 8.58327C118.242 9.02339 118.56 9.54297 118.78 10.142C119 10.7411 119.097 11.3951 119.073 12.1042L119.061 12.6269C119.057 12.7747 118.937 12.8928 118.789 12.8928H112.364C112.419 13.109 112.497 13.3107 112.6 13.4979C112.832 13.8891 113.162 14.1948 113.59 14.4148C114.03 14.6349 114.55 14.7449 115.149 14.7449C115.564 14.7449 115.931 14.6838 116.249 14.5615C116.512 14.4642 116.79 14.3126 117.084 14.1068C117.211 14.0179 117.387 14.0435 117.477 14.17L118.546 15.681C118.626 15.7951 118.608 15.9523 118.499 16.0397C118.176 16.2987 117.835 16.5151 117.478 16.6888C117.05 16.8966 116.61 17.0494 116.157 17.1472C115.717 17.2573 115.277 17.3123 114.837 17.3123ZM112.526 10.7655C112.456 10.9102 112.401 11.0691 112.359 11.2423H116.359V11.224C116.335 10.9183 116.237 10.6494 116.066 10.4171C115.907 10.1726 115.693 9.98309 115.424 9.84861C115.155 9.71413 114.849 9.64689 114.507 9.64689C114.03 9.64689 113.62 9.74469 113.278 9.9403C112.948 10.1237 112.697 10.3988 112.526 10.7655ZM38.3908 17.3309C37.6695 17.3309 37.0521 17.1781 36.5387 16.8724C36.0374 16.5546 35.6462 16.1022 35.365 15.5154C35.0961 14.9286 34.9616 14.2256 34.9616 13.4065V7.66377C34.9616 7.51345 35.0834 7.39158 35.2338 7.39158H37.6418C37.7922 7.39158 37.914 7.51345 37.914 7.66377V13.0031C37.914 13.3943 37.9752 13.7305 38.0974 14.0117C38.2197 14.2929 38.4031 14.5129 38.6476 14.6719C38.8921 14.8186 39.1855 14.8919 39.5278 14.8919C39.7845 14.8919 40.0168 14.8491 40.2247 14.7636C40.4447 14.678 40.6281 14.5618 40.7748 14.4151C40.9337 14.2562 41.056 14.0789 41.1416 13.8833C41.2271 13.6755 41.2699 13.4493 41.2699 13.2048V7.66377C41.2699 7.51345 41.3918 7.39158 41.5421 7.39158H43.9502C44.1005 7.39158 44.2224 7.51345 44.2224 7.66377V16.857C44.2224 17.0073 44.1005 17.1292 43.9502 17.1292H41.7086C41.565 17.1292 41.4462 17.0177 41.437 16.8744L41.3732 15.882C41.3017 15.9766 41.2245 16.0684 41.1416 16.1573C40.7992 16.5118 40.3897 16.7991 39.9129 17.0192C39.4361 17.227 38.9288 17.3309 38.3908 17.3309Z" fill="#0F012E"/>
    <path opacity="0.9" d="M9.326 10.0907L17.3325 5.16365C17.5081 5.05559 17.5045 4.79911 17.3259 4.69607L9.31949 0.0770129C9.23668 0.0292343 9.13486 0.0284105 9.05129 0.074843L0.736843 4.69398C0.553135 4.79604 0.549472 5.05894 0.730266 5.16608L9.04458 10.0931C9.13155 10.1446 9.23991 10.1437 9.326 10.0907Z" fill="#0F012E"/>
    <path d="M8.99592 20.9263L17.3129 16.3058C17.4966 16.2037 17.5003 15.9408 17.3195 15.8337L0.410953 5.81384C0.229511 5.70632 0 5.8371 0 6.048V15.9153C0 16.0142 0.0535918 16.1053 0.140003 16.1533L8.73155 20.9263C8.81376 20.972 8.91372 20.972 8.99592 20.9263Z" fill="#0F012E"/>
    </svg>
    